#!OML:ASF F:\VICON\USERDATA\INSTALL\rory3\rory3.ASF
:FULLY-SPECIFIED
:DEGREES
125
root 0.926086 17.7935 -8.07693 -2.04337 2.09793 3.02398
lowerback 9.96951 -1.49206 -4.82386
upperback 0.0150428 -2.4789 1.16717
thorax -5.32494 -1.08079 4.2963
lowerneck -16.8827 -2.42489 -2.43363
upperneck 19.6212 -2.81386 0.438196
head 8.98192 -1.45616 0.197214
rclavicle 1.77167e-014 -1.11319e-014
rhumerus -36.2535 -18.0173 -76.6066
rradius 25.1868
rwrist 3.82821
rhand -14.0434 23.4351
rfingers 7.12502
rthumb 12.0873 -6.19582
lclavicle 1.77167e-014 -1.11319e-014
lhumerus -26.7603 -5.31989 76.9215
lradius 32.8137
lwrist 9.55857
lhand -29.3356 37.9836
lfingers 7.12502
lthumb -2.67582 67.9466
rfemur -29.6483 7.55865 15.6674
rtibia 17.1801
rfoot -16.5345 -18.0092
rtoes 8.25599
lfemur 11.4911 -1.96258 -28.1518
ltibia 17.1342
lfoot -16.922 -4.99239
ltoes 1.82903
126
root 0.914372 17.7733 -7.89143 -2.08009 2.44201 3.01193
lowerback 9.90888 -1.51936 -4.66077
upperback 0.220688 -2.49489 1.05835
thorax -5.08379 -1.10582 4.08311
lowerneck -17.3324 -2.48679 -2.23915
upperneck 19.626 -2.94871 0.478758
head 9.0644 -1.49803 0.156401
rclavicle 3.14577e-014 -3.97569e-016
rhumerus -36.1446 -18.7926 -76.5143
rradius 24.9395
rwrist 4.27155
rhand -14.149 24.8146
rfingers 7.12502
rthumb 11.9854 -4.82229
lclavicle 3.14577e-014 -3.97569e-016
lhumerus -25.7371 -5.74239 76.6666
lradius 32.6723
lwrist 9.45693
lhand -29.9472 29.0581
lfingers 7.12502
lthumb -3.26647 59.0129
rfemur -29.3414 8.2076 15.3168
rtibia 15.7383
rfoot -16.5572 -18.8438
rtoes -4.59726
lfemur 12.2465 -2.06334 -28.0006
ltibia 16.924
lfoot -17.1447 -5.86866
ltoes -0.0223307
127
root 0.900808 17.7551 -7.69983 -2.09257 2.71563 3.01456
lowerback 9.97715 -1.57471 -4.66545
upperback 0.289074 -2.57005 1.07163
thorax -5.04154 -1.14524 4.11069
lowerneck -17.7746 -2.48982 -2.13283
upperneck 19.7024 -2.94356 0.358597
head 9.16725 -1.49915 0.0925608
rclavicle 2.90226e-014 7.15625e-015
rhumerus -36.1276 -19.0122 -76.4202
rradius 24.6998
rwrist 4.37
rhand -14.0744 25.1982
rfingers 7.12502
rthumb 12.0573 -4.43444
lclavicle 2.90226e-014 7.15625e-015
lhumerus -25.0436 -5.83123 76.5296
lradius 32.6409
lwrist 9.20062
lhand -30.3115 26.8334
lfingers 7.12502
lthumb -3.61827 56.7824
rfemur -29.029 8.29547 15.232
rtibia 14.7385
rfoot -16.5498 -19.1046
rtoes -7.2824
lfemur 12.919 -2.17355 -27.8749
ltibia 16.9638
lfoot -17.2065 -6.48283
ltoes -1.99803
128
root 0.886976 17.7376 -7.50735 -2.18481 2.78211 3.03629
lowerback 10.0669 -1.60633 -4.78343
upperback 0.317379 -2.6245 1.16287
thorax -5.04704 -1.16869 4.28382
lowerneck -17.6259 -2.45414 -2.3509
upperneck 19.4436 -2.86503 0.489591
head 9.05555 -1.46452 0.186879
rclavicle 1.99282e-014 -3.97569e-015
rhumerus -36.2408 -18.9383 -76.2358
rradius 24.4091
rwrist 4.34076
rhand -14.1285 25.567
rfingers 7.12502
rthumb 12.0052 -4.06867
lclavicle 1.99282e-014 -3.97569e-015
lhumerus -24.8437 -5.74585 76.4908
lradius 32.8556
lwrist 9.06009
lhand -30.7212 25.6041
lfingers 7.12502
lthumb -4.01393 55.546
rfemur -28.6337 7.91481 15.4342
rtibia 14.1596
rfoot -16.5399 -18.5106
rtoes -9.03941
lfemur 13.5424 -2.24415 -27.8142
ltibia 17.4226
lfoot -17.2657 -6.47186
ltoes -3.13218
129
root 0.873744 17.7162 -7.31993 -2.14445 2.80287 3.19054
lowerback 10.0471 -1.5947 -4.91893
upperback 0.333516 -2.62568 1.11766
thorax -5.01506 -1.16793 4.31153
lowerneck -17.7052 -2.4921 -2.26541
upperneck 19.4734 -2.92762 0.437854
head 9.07881 -1.49285 0.145889
rclavicle -2.15184e-014 1.94809e-014
rhumerus -36.3052 -19.5434 -75.9233
rradius 23.8976
rwrist 4.84389
rhand -14.1429 26.8474
rfingers 7.12502
rthumb 11.9913 -2.78906
lclavicle -2.15184e-014 1.94809e-014
lhumerus -24.6492 -6.00652 76.3784
lradius 33.2588
lwrist 9.23675
lhand -31.0938 25.7053
lfingers 7.12502
lthumb -4.37373 55.6401
rfemur -28.5455 7.03405 15.7288
rtibia 14.1274
rfoot -14.9067 -17.1249
rtoes -7.82889
lfemur 13.9195 -2.31406 -27.8978
ltibia 18.1483
lfoot -17.6002 -6.26226
ltoes -4.66378
130
root 0.859418 17.6758 -7.12757 -2.05794 2.67651 3.10499
lowerback 10.0005 -1.54735 -4.82189
upperback 0.282952 -2.54984 1.12827
thorax -5.05404 -1.1304 4.25725
lowerneck -17.7894 -2.556 -2.21136
upperneck 19.6052 -3.02463 0.413001
head 9.13962 -1.53669 0.113949
rclavicle 1.14301e-015 -1.19271e-014
rhumerus -36.5347 -19.8299 -75.7374
rradius 23.7054
rwrist 5.31522
rhand -14.2799 27.1825
rfingers 7.12502
rthumb 11.8592 -2.46164
lclavicle 1.14301e-015 -1.19271e-014
lhumerus -24.5751 -6.21307 76.2331
lradius 33.5129
lwrist 9.27572
lhand -31.205 26.0979
lfingers 7.12502
lthumb -4.48112 56.0305
rfemur -28.9185 6.23589 16.3381
rtibia 14.9484
rfoot -12.4568 -15.7164
rtoes -5.04585
lfemur 14.2869 -2.47354 -27.7775
ltibia 18.6983
lfoot -17.5991 -6.26588
ltoes -5.54892
131
root 0.845213 17.6396 -6.92655 -2.13786 2.53511 2.87967
lowerback 10.0549 -1.48788 -4.59254
upperback 0.294164 -2.4431 1.19564
thorax -5.09043 -1.08149 4.18648
lowerneck -17.7028 -2.6218 -2.24214
upperneck 19.4264 -3.11684 0.452538
head 9.06456 -1.57791 0.12281
rclavicle -3.43152e-014 8.34896e-015
rhumerus -36.7363 -19.995 -75.5586
rradius 23.7828
rwrist 5.58934
rhand -13.859 26.4927
rfingers 7.12502
rthumb 12.265 -3.12765
lclavicle -3.43152e-014 8.34896e-015
lhumerus -24.38 -6.07829 76.1002
lradius 33.4625
lwrist 8.91318
lhand -30.6867 25.0663
lfingers 7.12502
lthumb -3.98059 55.0089
rfemur -29.2558 5.34959 17.2063
rtibia 16.3333
rfoot -11.1018 -14.5785
rtoes -3.74062
lfemur 14.7658 -2.63182 -27.5416
ltibia 19.1192
lfoot -17.1978 -6.56637
ltoes -7.06659
132
root 0.836098 17.6463 -6.72439 -2.315 2.6042 2.97739
lowerback 10.1432 -1.51786 -4.59007
upperback 0.368149 -2.48714 1.16001
thorax -5.05914 -1.10602 4.15519
lowerneck -17.6628 -2.55125 -2.28598
upperneck 19.2885 -3.01121 0.472945
head 9.00941 -1.52954 0.152098
rclavicle 2.97432e-014 8.74653e-015
rhumerus -36.7713 -20.2843 -75.3234
rradius 23.478
rwrist 5.81543
rhand -13.2771 27.225
rfingers 7.12502
rthumb 12.8261 -2.36099
lclavicle 2.97432e-014 8.74653e-015
lhumerus -24.1854 -5.83435 75.9984
lradius 33.4698
lwrist 8.51445
lhand -30.6693 23.6849
lfingers 7.12502
lthumb -3.96376 53.6278
rfemur -29.1966 4.29053 17.7589
rtibia 17.8947
rfoot -11.2387 -13.6025
rtoes -4.46837
lfemur 15.279 -2.93131 -27.6766
ltibia 19.5084
lfoot -16.4487 -7.00271
ltoes -7.29373
133
root 0.823431 17.6559 -6.51939 -2.45804 2.76694 3.06619
lowerback 10.0708 -1.56561 -4.68734
upperback 0.48528 -2.55551 1.17152
thorax -4.8835 -1.14532 4.22477
lowerneck -17.7538 -2.45771 -2.28847
upperneck 19.3124 -2.87104 0.439848
head 9.03165 -1.46742 0.158127
rclavicle -4.05272e-014 8.34896e-015
rhumerus -36.7909 -20.7511 -74.9678
rradius 22.9973
rwrist 6.4686
rhand -13.1912 27.9034
rfingers 7.12502
rthumb 12.9088 -1.67737
lclavicle -4.05272e-014 8.34896e-015
lhumerus -24.0566 -5.76365 75.9754
lradius 33.5605
lwrist 8.5427
lhand -31.0998 22.4104
lfingers 7.12502
lthumb -4.37953 52.3452
rfemur -29.1423 3.41813 18.1988
rtibia 19.7039
rfoot -11.4261 -12.6305
rtoes -5.07941
lfemur 15.8903 -3.30248 -27.8023
ltibia 19.7524
lfoot -15.4583 -7.15304
ltoes -5.99328
134
root 0.804619 17.6499 -6.3095 -2.6282 2.9132 2.95669
lowerback 10.034 -1.59867 -4.6725
upperback 0.618765 -2.58931 1.25121
thorax -4.71582 -1.16962 4.29908
lowerneck -17.8011 -2.46536 -2.31065
upperneck 19.2252 -2.87675 0.455186
head 9.01083 -1.46967 0.166234
rclavicle 5.73494e-014 -1.94809e-014
rhumerus -36.7241 -20.9203 -74.8743
rradius 22.7596
rwrist 7.42604
rhand -14.4051 26.6607
rfingers 7.12502
rthumb 11.7385 -2.99041
lclavicle 5.73494e-014 -1.94809e-014
lhumerus -23.9055 -5.61509 75.9762
lradius 33.6825
lwrist 8.32608
lhand -31.1369 23.2609
lfingers 7.12502
lthumb -4.41537 53.1949
rfemur -29.2022 2.95296 18.6967
rtibia 21.6212
rfoot -11.3495 -11.9643
rtoes -5.49673
lfemur 16.5483 -3.53503 -27.6335
ltibia 20.018
lfoot -14.677 -8.35091
ltoes -5.61678
135
root 0.78314 17.6455 -6.09747 -2.75841 3.16153 2.89094
lowerback 10.1121 -1.70478 -4.70273
upperback 0.63191 -2.73391 1.31646
thorax -4.72566 -1.23981 4.40682
lowerneck -17.6123 -2.43415 -2.30187
upperneck 19.0263 -2.81647 0.352526
head 8.9058 -1.45264 0.141027
rclavicle -6.58474e-015 3.18055e-015
rhumerus -36.8128 -20.6738 -74.9437
rradius 22.7071
rwrist 8.25736
rhand -15.9255 25.5851
rfingers 7.12502
rthumb 10.272 -4.14403
lclavicle -6.58474e-015 3.18055e-015
lhumerus -24.0508 -5.31585 75.9481
lradius 33.861
lwrist 8.09809
lhand -31.7508 23.3137
lfingers 7.12502
lthumb -5.00814 53.2346
rfemur -29.1915 2.53482 19.0861
rtibia 23.1639
rfoot -11.21 -11.5697
rtoes -6.39951
lfemur 17.004 -3.84018 -27.4964
ltibia 20.6136
lfoot -13.929 -8.99925
ltoes -7.7465
